# Blender 3.6.2
# www.blender.org
o 0_WhereIsMySon.001
v 41.441387 -51.801731 0.000020
v -41.441387 -51.801731 -0.000007
v 41.441387 51.801731 0.000007
v -41.441387 51.801731 -0.000020
v -41.441387 -51.801731 0.000002
v 41.441387 -51.801731 0.000002
v -41.441387 51.801731 -0.000002
v 41.441387 51.801731 -0.000002
vn -0.0000 -0.0000 -1.0000
vn -0.0000 -0.0000 1.0000
vt 0.000000 1.000000
vt 1.000000 1.000000
vt 1.000000 0.000000
vt 0.000000 0.000000
s 0
f 1/1/1 2/2/1 4/3/1 3/4/1
f 5/1/2 6/2/2 8/3/2 7/4/2
o UCX_1_Cube.001
v -41.734070 51.659138 0.999996
v -41.734070 -51.659138 1.000004
v -41.734070 51.659138 -1.000004
v -41.734070 -51.659138 -0.999996
v 41.734070 51.659138 0.999996
v 41.734070 -51.659138 1.000004
v 41.734070 51.659138 -1.000004
v 41.734070 -51.659138 -0.999996
vn -1.0000 -0.0000 -0.0000
vn -0.0000 -0.0000 -1.0000
vn 1.0000 -0.0000 -0.0000
vn -0.0000 -0.0000 1.0000
vn -0.0000 1.0000 -0.0000
vn -0.0000 -1.0000 -0.0000
vt 0.375000 0.000000
vt 0.375000 0.250000
vt 0.625000 0.250000
vt 0.625000 0.000000
vt 0.375000 0.500000
vt 0.625000 0.500000
vt 0.375000 0.750000
vt 0.625000 0.750000
vt 0.375000 1.000000
vt 0.625000 1.000000
vt 0.125000 0.500000
vt 0.125000 0.750000
vt 0.875000 0.750000
vt 0.875000 0.500000
s 0
f 9/5/3 11/6/3 12/7/3 10/8/3
f 11/6/4 15/9/4 16/10/4 12/7/4
f 15/9/5 13/11/5 14/12/5 16/10/5
f 13/11/6 9/13/6 10/14/6 14/12/6
f 11/15/7 9/16/7 13/11/7 15/9/7
f 16/10/8 14/12/8 10/17/8 12/18/8
